<?xml version="1.0" encoding="utf-8"?>
<!-- Generator: Adobe Illustrator 22.1.0, SVG Export Plug-In . SVG Version: 6.00 Build 0)  -->
<svg version="1.1" id="Laag_1" xmlns:serif="http://www.serif.com/"
	 xmlns="http://www.w3.org/2000/svg" xmlns:xlink="http://www.w3.org/1999/xlink" x="0px" y="0px" viewBox="0 0 841.9 595.3"
	 style="enable-background:new 0 0 841.9 595.3;" xml:space="preserve">
<style type="text/css">
	.st0{fill:#020051;}
	.st1{fill:#B50C16;}
	.st2{fill:#FFFFFF;}
</style>
<g id="nu">
	<path id="path2987-5" class="st0" d="M416.1,20.3c116.5,0,215.2,76.9,248.1,182.6c-37.6,5.5-66.4,37.9-66.4,76.9
		s28.8,71.4,66.4,76.9c-32.9,105.7-131.4,182.6-248.1,182.6c-143.3,0-259.8-116.2-259.8-259.8C156.6,136.5,272.8,20.3,416.1,20.3z"
		/>
	<path id="path2991-2" class="st1" d="M612.1,278.6c0-35.8,29.1-64.9,64.9-64.9s64.9,29.1,64.9,64.9s-29.1,64.9-64.9,64.9
		C640.9,343.6,612.1,314.7,612.1,278.6z"/>
	<path id="path3105-1" class="st2" d="M236.1,175.5c0-4.1,4.1-8.2,7.9-8.2h152.9c4.1,0,7,4.1,7,8.2v209.7c0,4.1-2.3,7.3-7,7.3h-62
		c-4.1,0-6.1-2.9-6.1-7.3V229.1c0-10.8-17.8-10.5-17.8,0v156.1c0,4.4-3.5,7.3-7.3,7.3h-60c-4.4,0-7.9-2.9-7.9-7.3
		C236.1,385.2,236.1,175.5,236.1,175.5z M421.3,385.8c0,4.1,0.6,7,4.7,7h152.9c4.1,0,5.8-2.6,5.8-7V176.1c0-4.1-1.2-8.7-5.8-8.7h-62
		c-4.1,0-7.3,4.4-7.3,8.7v156.1c0,10.8-17.8,10.5-17.8,0V176.1c0-4.4-2.3-8.7-6.1-8.7h-60c-4.4,0-4.7,4.1-4.7,8.7
		C421.3,176.1,421.3,385.8,421.3,385.8z"/>
	<g id="flowRoot3358">
		<path id="path3121" class="st2" d="M684,304.8h-9.9v-19.2c0-4.1-0.3-6.7-0.6-7.9c-0.3-1.2-1.2-2-2-2.9c-0.9-0.6-2-0.9-3.5-0.9
			c-1.7,0-3.2,0.6-4.7,1.5c-1.5,0.9-2.3,2.3-2.9,3.8s-0.9,4.4-0.9,8.7v17.2h-9.9v-37.9h9.3v5.5c3.2-4.4,7.6-6.4,12.5-6.4
			c2.3,0,4.4,0.3,6.1,1.2c1.7,0.9,3.2,1.7,4.1,2.9c0.9,1.2,1.7,2.6,2,4.1c0.3,1.5,0.6,3.8,0.6,6.7v23.6"/>
		<path id="path3123" class="st2" d="M694.2,304.8v-52.4h9.9v52.4H694.2"/>
	</g>
</g>
</svg>
